<?xml version="1.0" encoding="UTF-8" standalone="no"?>
<svg
   enable-background="new 212.445 217.724 572.599 572.598"
   viewBox="212.445 217.724 572.599 572.598"
   version="1.1"
   id="svg60"
   sodipodi:docname="sc_out2.svg"
   inkscape:version="1.3.2 (091e20e, 2023-11-25)"
   xmlns:inkscape="http://www.inkscape.org/namespaces/inkscape"
   xmlns:sodipodi="http://sodipodi.sourceforge.net/DTD/sodipodi-0.dtd"
   xmlns="http://www.w3.org/2000/svg"
   xmlns:svg="http://www.w3.org/2000/svg">
  <defs
     id="defs60" />
  <sodipodi:namedview
     id="namedview60"
     pagecolor="#505050"
     bordercolor="#eeeeee"
     borderopacity="1"
     inkscape:showpageshadow="0"
     inkscape:pageopacity="0"
     inkscape:pagecheckerboard="0"
     inkscape:deskcolor="#505050"
     inkscape:zoom="0.41215651"
     inkscape:cx="287.51214"
     inkscape:cy="286.29901"
     inkscape:window-width="1312"
     inkscape:window-height="449"
     inkscape:window-x="0"
     inkscape:window-y="38"
     inkscape:window-maximized="0"
     inkscape:current-layer="svg60" />
  <clipPath
     id="a">
    <g
       id="g1">
      <path
         d="m-899.45141 966.94693c.45027.2858.94994 2.7705 1.3813 6.82867.0958-.13418.16914-.12215.30007.41865.29585 1.22186.80018 4.41362 1.17842 7.01224.0375.25779-.0857.7924-.31428.9844-.19342.1624-.38651-.17326-.40557-.32568-.27085-2.16689-.71384-5.41865-1.17248-7.6033-.26119-1.24405-.4507-1.87332-.66129-3.0897"
         stroke-width=".029741"
         id="path1" />
    </g>
  </clipPath>
  <clipPath
     id="b">
    <g
       id="g2">
      <path
         d="m-899.45141 966.94693c.45027.2858.94994 2.7705 1.3813 6.82867.0958-.13418.16914-.12215.30007.41865.29585 1.22186.80018 4.41362 1.17842 7.01224.0375.25779-.0857.7924-.31428.9844-.19342.1624-.38651-.17326-.40557-.32568-.27085-2.16689-.71384-5.41865-1.17248-7.6033-.26119-1.24405-.4507-1.87332-.66129-3.0897"
         stroke-width=".029741"
         id="path2" />
    </g>
  </clipPath>
  <clipPath
     id="c">
    <g
       id="g3">
      <path
         d="m-899.45141 966.94693c.45027.2858.94994 2.7705 1.3813 6.82867.0958-.13418.16914-.12215.30007.41865.29585 1.22186.80018 4.41362 1.17842 7.01224.0375.25779-.0857.7924-.31428.9844-.19342.1624-.38651-.17326-.40557-.32568-.27085-2.16689-.71384-5.41865-1.17248-7.6033-.26119-1.24405-.4507-1.87332-.66129-3.0897"
         stroke-width=".029741"
         id="path3" />
    </g>
  </clipPath>
  <clipPath
     id="d">
    <g
       id="g4">
      <path
         d="m-899.45141 966.94693c.45027.2858.94994 2.7705 1.3813 6.82867.0958-.13418.16914-.12215.30007.41865.29585 1.22186.80018 4.41362 1.17842 7.01224.0375.25779-.0857.7924-.31428.9844-.19342.1624-.38651-.17326-.40557-.32568-.27085-2.16689-.71384-5.41865-1.17248-7.6033-.26119-1.24405-.4507-1.87332-.66129-3.0897"
         stroke-width=".029741"
         id="path4" />
    </g>
  </clipPath>
  <clipPath
     id="e">
    <g
       id="g5">
      <path
         d="m-899.45141 966.94693c.45027.2858.94994 2.7705 1.3813 6.82867.0958-.13418.16914-.12215.30007.41865.29585 1.22186.80018 4.41362 1.17842 7.01224.0375.25779-.0857.7924-.31428.9844-.19342.1624-.38651-.17326-.40557-.32568-.27085-2.16689-.71384-5.41865-1.17248-7.6033-.26119-1.24405-.4507-1.87332-.66129-3.0897"
         stroke-width=".029741"
         id="path5" />
    </g>
  </clipPath>
  <clipPath
     id="f">
    <path
       d="m-802.359 814.555c1.846-13.026 12.314-24.169 25.591-25.466 13.632-1.331 35.08-5.261 45.4-8.715 13.544-4.534 34.843-2.516 35.224 12.495.439 17.386 6.104 18.423 20.115 27.786 6.768 4.522 13.266 16.806 11.317 32.39-1.247 9.975-6.891 21.988-1.429 31.137 3.949 6.615 2.04 19.57-1.163 26.658-4.311 9.537-16.821 32.887-8.604 41.537 6.412 6.75 15.736-4.586 16.217-11.379 12.312 8.557 3.764 34.979-14.263 56.646-12.548 15.082-38.976 11.432-44.252-.281-4.384-9.732-11.098-19.572-18.532-26.711-5.669-5.443-14.803-19.316-15.299-33.312-.427-12.033.267-26.449-6.256-36.49l-56.418-57.272c5.865-10.172 10.88-18.632 12.352-29.023z"
       id="path6" />
  </clipPath>
  <clipPath
     id="g">
    <path
       d="m-907.577 916.376c-72.236 10.721-108.132 10.406-116.415 4.205-13.142-9.836-31.18-10.732-38.147 2.365-12.261 23.049-4.018 71.41 24.107 75.914 32.578 5.215 70.792-8.188 144.174-41.711"
       id="path7" />
  </clipPath>
  <clipPath
     id="h">
    <path
       d="m-799.265 838.312c32.062 9.209 42.073 49.671 28.147 111.296 9.126-.76 14.752.258 18.677 9.32 8.867 20.479 10.904 70.861 10.016 111.506-.088 4.033-16.093 10.062-36.344 10.092-17.136.021-28.372-6.9-28.074-9.248 4.247-33.373 7.745-83.883-2.577-119.684-5.878-20.387-13.369-31.365-15.592-50.777"
       id="path8" />
  </clipPath>
  <clipPath
     id="i">
    <path
       d="m-918.837 823.352c-24.743 80.377-18.914 163.747 55.143 162.19 57.797-1.215 81.22-31.449 82.146-76.844l-63.75-21.957c-4.774-23.021-4.822-46.544.364-69.066z"
       id="path9" />
  </clipPath>
  <clipPath
     id="j">
    <path
       d="m-918.837 823.352c-24.743 80.377-18.914 163.747 55.143 162.19 57.797-1.215 81.22-31.449 82.146-76.844l-63.75-21.957c-4.774-23.021-4.822-46.544.364-69.066z"
       id="path10" />
  </clipPath>
  <clipPath
     id="k">
    <path
       d="m-858.479 848.183c6.292-3.994 18.379-12.174 23.213-18.084 36.6-44.746 63.271-89.857 47.791-152.92-18.036-73.473-178.55-82.842-212.756-17.585-27.851 53.132-19.224 148.145 30.39 189.449 16.574 13.798 43.258 20.546 69.354 18.396 16.837-1.387 27.246-9.886 42.008-19.256z"
       id="path11" />
  </clipPath>
  <clipPath
     id="l">
    <path
       d="m-915.395 555.745c-.385-.005-.752.003-1.125.031-9.696 5.201-14.408 10.943-19.625 20.906-6.293 10.78-20.402 16.359-31.812 16.938-15.171 1.964-27.297 9.706-32.718 23.844-6.69 12.381-18.734 19.672-32.5 13.281-7.073-3.284-8.607-14.282-8.719-20.969-24.43 20.047-24.426 39.915-12.562 60.5 6.988 12.125 24.688 20.162 38.531 13.469 18.877-9.126 16.996-26.401 36.281-35.25 8.923-3.822 21.273.5 29.594 2.562 14.81 2.941 24.681-19.59 39.25-18.719 15.051 1.023 25.142 14.131 35.531 23.469 9.239 2.995 19.324-3.189 27.77-5.951 12.871-4.21 37.545-7.347 41.563 17.224l34.766-9.125c-3.78-20.653-16.916-35.957-28.661-44.21-11.672-8.201-28.967-23.153-37-34.438-7.283-10.23-21.76-7.772-33.094-8.125-15.95.412-33.542-15.291-45.47-15.437z"
       id="path12" />
  </clipPath>
  <clipPath
     id="m">
    <path
       d="m-855.972 965.622c.659 48.689-4.25 89.502-15.558 137.922-2.52 10.787 12.429 12.107 34.922 12.15 22.705.043 41.596-1.238 42.104-13.773 2.053-50.568-6.005-103.922-15.7-150.299"
       id="path13" />
  </clipPath>
  <path
     d="m 488.54477,509.31782 c 31.593,11.625 39.641,52.734 22.749,113.119 9.154,-0.064 14.728,1.379 18.211,10.717 7.871,21.094 -7.904,70.31196 -10.756,110.76996 -0.283,4.016 -15.638,4.279 -35.874,2.764 -17.125,-1.283 -28.946,-4.514 -28.535,-6.83 5.856,-32.955 19.396,-82.46896 18.585,-118.35896 -0.48,-21.219 -11.844,-32.293 -13.128,-51.818"
     fill="#bbb999"
     id="path14" />
  <path
     d="m 491.49177,500.80182 c 47.237,21.087 43.694,76.572 21.5,117.472 8.281,0.719 14.176,4.145 14.809,9.713 4.029,35.496 3.046,69.33396 -2.932,112.97496 -1.284,9.377 -15.792,10.922 -40.528,9.363 -26.974,-1.697 -35.85,-7.5 -33.903,-15.092 7.902,-30.82 18.332,-66.23196 18.93,-91.05096 0.494,-20.475 -2.501,-25.604 -1.341,-45.293 l 5.373,-3.881 c -0.365,20.402 3.512,29.053 2.638,48.248 -1.234,27.117 -10.404,60.48796 -18.071,90.87896 -1.37,5.434 11.936,8.326 26.593,9.227 17.629,1.082 32.721,0.648 33.418,-4.197 5.8,-40.264 8.048,-77.74796 3.97,-110.28696 -0.404,-3.223 -5.173,-5.146 -11.623,-5.588 -1.378,2.002 -2.206,6.324 -2.47,9.666 -1.479,-4.492 -1.671,-10.785 0.167,-14.506 21.365,-43.264 24.943,-92.085 -17.264,-112.537 z"
     fill="#eee000"
     id="path15" />
  <path
     d="m 556.07419,499.97242 c 1.846,-13.026 12.314,-24.169 25.591,-25.466 13.632,-1.331 35.08,-5.261 45.4,-8.715 13.544,-4.534 34.843,-2.516 35.224,12.495 0.439,17.386 6.104,18.423 20.115,27.786 6.768,4.522 13.266,16.806 11.317,32.39 -1.247,9.975 -6.891,21.988 -1.429,31.137 3.949,6.615 2.04,19.57 -1.163,26.658 -4.311,9.537 -16.821,32.887 -8.604,41.537 6.412,6.75 15.736,-4.586 16.217,-11.379 12.312,8.557 3.764,34.979 -14.263,56.64596 -12.548,15.082 -38.976,11.432 -44.252,-0.281 -4.384,-9.732 -11.098,-19.57196 -18.532,-26.71096 -5.669,-5.443 -14.803,-19.316 -15.299,-33.312 -0.427,-12.033 0.267,-26.449 -6.256,-36.49 l -56.418,-57.272 c 5.865,-10.172 10.88,-18.632 12.352,-29.023 z"
     fill="#aaa999"
     id="path16" />
  <path
     clip-path="url(#f)"
     d="m -685.102,818.206 c 25.726,38.77 -27.913,182.684 -78.758,153.798 11.517,106.046 95.953,95.816 156.758,73.206 33.626,-145.102 -2.94,-259.632 -78,-227.004 z"
     fill="#aaa000"
     id="path17"
     transform="translate(1359.1403,-329.43182)" />
  <path
     d="m 639.59319,459.27242 c -5.062,0.144 -10.28,1.229 -15.125,3.253 -13.824,5.772 -17.458,6.183 -32.484,7.229 -18.735,1.303 -34.312,14.702 -36.252,29.936 -1.33,10.438 -7.97,19.051 -14.964,29.199 l 32.864,34.458 c 0,0 19.498,15.367 24.377,26.354 4.278,9.637 4.973,21.031 3.932,32.82 -1.235,13.982 8.141,25.885 13.812,31.338 7.438,7.152 12.303,17.69896 17.944,27.21696 11.956,20.168 29.898,23.322 54.43,2.48 23.206,-19.71696 28.002,-58.79296 7.166,-63.57596 3.977,5.355 -6.33,22.223 -12.42,15.373 -7.804,-8.779 5.661,-32.846 12.4,-42.279 5.008,-7.01 5.891,-17.521 0.859,-22.715 -8.835,-9.121 -2.121,-23.096 0.396,-32.885 3.934,-15.296 -3.667,-29.648 -10.461,-34.117 -14.067,-9.255 -19.288,-9.479 -20.622,-26.706 -0.923,-11.937 -12.914,-17.745 -25.852,-17.379 z m 10.64,9.357 c 6.129,2.239 10.185,7.21 9.93,12.387 -0.51,10.319 3.733,19.318 17.771,25.368 12.418,5.352 15.555,19.782 11.809,31.849 -3.672,11.826 -8.918,25.854 -0.244,34.795 5.843,6.021 1.4,16.443 -3.397,23.646 -8.5,12.764 -16.163,26.303 -9.5,39.096 5.301,10.178 18.461,5.711 23.84,-3.377 1.845,3.014 1.886,8.539 1.207,12.191 -2.649,14.26 -10.632,31.57796 -21.138,38.34796 -18.174,11.711 -31.443,11.916 -39.965,-4.34 -7.888,-15.04896 -21.054,-27.28296 -27.751,-41.37096 -3.597,-7.566 -4.075,-16.229 -4.28,-24.857 -0.207,-8.744 -0.165,-17.451 -3.209,-24.965 -5.122,-12.639 -15.896,-21.01 -25.416,-30.92 l -28.591,-29.071 c 5.096,-6.967 11.099,-14.154 11.963,-22.322 1.523,-14.387 14.35,-28.536 29.588,-27.633 23.128,1.371 39.005,-15.539 57.383,-8.824 z"
     fill="#eee000"
     id="path18" />
  <path
     d="m 451.5633,586.94418 c -72.236,10.721 -108.132,10.406 -116.415,4.205 -13.142,-9.836 -31.18,-10.732 -38.147,2.365 -12.261,23.049 -4.018,71.41 24.107,75.914 32.578,5.215 70.792,-8.188 144.174,-41.711"
     fill="#bbb999"
     id="path19" />
  <path
     clip-path="url(#g)"
     d="m -1026.984,911.44 c 38.293,30.469 56.639,26.758 114.92,14.516 v -18.385 l -174.313,-6.967 -6.039,109.033 47.651,3.607 c 23.253,-19.2 33.416,-64.22 17.781,-101.804 z"
     fill="#bbbfff"
     id="path20"
     transform="translate(1359.1403,-329.43182)" />
  <path
     d="m 449.2233,585.00618 c -48.902,12.311 -104.771,9.635 -110.185,4.729 -14.11,-12.787 -37.627,-10.275 -44.637,2.801 -14.912,27.822 -3.776,74.904 26.488,79.16 34.578,4.859 73.539,-4.811 143.422,-42.742 l -1.935,-3.174 c -62.659,32.93 -107.836,44.449 -139.942,39.551 -22.784,-3.477 -34.187,-44.479 -20.046,-68.141 4.694,-7.854 21.366,-10.264 31.283,-2.148 11.38,9.311 68.355,6.293 116.732,-6.969 z"
     fill="#eee000"
     id="path21" />
  <path
     d="m 559.8753,508.88018 c 32.062,9.209 42.073,49.671 28.147,111.296 9.126,-0.76 14.752,0.258 18.677,9.32 8.867,20.479 10.904,70.861 10.016,111.506 -0.088,4.033 -16.093,10.062 -36.344,10.092 -17.136,0.021 -28.372,-6.9 -28.074,-9.248 4.247,-33.373 7.745,-83.883 -2.577,-119.684 -5.878,-20.387 -13.369,-31.365 -15.592,-50.777"
     fill="#bbb999"
     id="path22" />
  <path
     clip-path="url(#h)"
     d="m -763.89,945.327 c 10.735,16.291 15.726,88.6 -35.166,142.129 l 85.568,3.049 c -8.905,-55.969 -2.195,-168.424 -50.402,-145.178 z"
     fill="#bbb000"
     id="path23"
     transform="translate(1359.1403,-329.43182)" />
  <path
     clip-path="url(#e)"
     d="m -777.45743,881.61807 c -2.65424,1.65035 -4.73825,2.75581 -7.81931,4.21876 -1.54687,0.73628 -0.54294,5.51559 1.22366,4.88866 3.23244,-1.15038 4.74707,-1.99806 7.52543,-3.35547 z m 8.4385,-6.58006 1.2676,5.74801 c 2.1953,-1.63867 3.95894,-3.18162 5.77438,-5.09963 0.94334,-0.99602 -0.30861,-5.81636 -1.21683,-4.98041 -1.79293,1.65427 -3.82716,3.08989 -5.82515,4.33203 z"
     fill="#aaa999"
     stroke-width="0.029741"
     id="path24"
     transform="translate(1359.1403,-329.43182)" />
  <path
     clip-path="url(#d)"
     d="m -781.52292,865.45017 c -1.42184,0.95113 -2.54588,1.69925 -4.07131,2.7774 -1.02731,0.72653 0.36236,5.6972 1.5889,5.06047 1.85254,-0.96291 3.25099,-1.64649 4.8916,-2.58595 l -1.0752,-6.13472 c -0.44042,0.291 -0.88576,0.58399 -1.33399,0.8828 z m 6.79391,-4.43542 2.58212,5.16395 c 1.44039,-1.07417 2.5517,-2.23825 4.03022,-3.51172 0.90724,-0.78121 -0.40434,-5.64344 -1.52639,-4.92865 -1.97948,1.26171 -3.25097,2.09275 -5.08595,3.27642 z"
     fill="#aaa999"
     stroke-width="0.029741"
     id="path25"
     transform="translate(1359.1403,-329.43182)" />
  <path
     clip-path="url(#c)"
     d="m -775.41924,895.91678 c -1.84472,1.22264 -3.25,2.16602 -5.20022,3.46289 -1.29977,0.86519 -0.43544,5.46674 0.96786,4.88279 2.23633,-0.93168 3.30274,-1.55473 5.10936,-2.59571 l -0.8477,-5.76752 c -0.01,0.006 -0.0195,0.0117 -0.0293,0.0176 z m 8.08103,-5.08591 -0.46285,6.3867 c 1.30276,-0.88282 3.63768,-2.7461 5.28126,-4.24607 1.00584,-0.91794 0.88377,-6.03126 -0.20122,-5.32418 -1.51071,0.98622 -3.03515,2.20503 -4.61719,3.18355 z"
     fill="#aaa999"
     stroke-width="0.029741"
     id="path26"
     transform="translate(1359.1403,-329.43182)" />
  <path
     clip-path="url(#b)"
     d="m -779.60991,852.46546 c -3.16403,1.41304 0.61049,20.46908 2.14274,31.78149 1.87997,13.87486 3.97669,27.16776 7.29506,25.88263 3.42581,-1.32817 5.66786,-16.77529 2.46962,-32.44324 -3.19741,-15.66968 -8.89568,-26.56662 -11.90742,-25.22088 z m 2.23638,7.87537 c 1.93163,-0.77534 6.16607,7.08589 8.36631,18.29474 2.20025,11.20892 1.17591,22.48813 -1.19912,23.53307 -2.1211,0.93355 -4.08599,-7.45702 -5.754,-18.87683 -1.39845,-9.57017 -3.5294,-22.09944 -1.41319,-22.95098 z"
     fill="#aaa999"
     stroke-width="0.029741"
     id="path27"
     transform="translate(1359.1403,-329.43182)" />
  <path
     clip-path="url(#a)"
     d="m -776.76703,863.05758 c -1.39653,0.74223 -0.12208,9.76754 1.38873,19.74597 1.50985,9.97843 3.04505,17.24007 4.82231,17.03502 1.93753,-0.22462 3.06249,-11.22064 1.14348,-21.03897 -1.91797,-9.81816 -5.7471,-16.59742 -7.35452,-15.74202 z m 2.05865,8.18355 c 0.8896,-0.60932 3.01367,3.23048 4.01566,8.70308 1.00298,5.47069 0.77739,10.89446 -0.18452,11.24407 -1.11039,0.40235 -2.31841,-3.46874 -3.19243,-8.99022 -0.87312,-5.52334 -1.52745,-10.34554 -0.63871,-10.95693 z"
     fill="#aaa999"
     stroke-width="0.029741"
     id="path28"
     transform="translate(1359.1403,-329.43182)" />
  <path
     d="m 553.2903,500.14718 c 48.12,17.47 51.252,73.787 37.348,117.298 8.223,0.076 14.519,3.09 16.153,8.719 10.425,35.873 15.712,70.465 12.975,114.697 -0.589,9.504 -13.811,12.33 -38.551,12.66 -26.977,0.359 -36.76,-4.852 -35.769,-12.684 4.299,-33.971 10.782,-68.232 6.636,-93.617 -3.421,-20.941 -7.645,-25.99 -10.102,-46.156 l 4.76,-4.35 c 3.362,20.832 8.285,29.588 11.085,49.254 3.954,27.779 -2.455,59.945 -6.123,92.994 -0.623,5.611 14.691,7.793 29.351,7.576 17.633,-0.26 31.789,-1.979 32.118,-6.893 2.729,-40.844 -1.827,-79.229 -11.843,-112.098 -0.992,-3.256 -5.951,-4.83 -12.343,-4.77 -0.965,2.15 -0.946,6.631 -0.567,10.062 -2.303,-4.469 -3.704,-10.879 -2.613,-14.824 12.69,-45.85 10.29,-95.457 -32.978,-112.705 z"
     fill="#eee000"
     id="path29" />
  <path
     d="m 560.8333,507.34318 c -17.102,-4.722 -43.528,-0.851 -59.626,13.522 -11.89,10.616 -20.771,25.766 -34.979,30.057 l 89.108,29.699 z"
     fill="#bbb999"
     id="path30" />
  <path
     d="m 560.8333,507.34318 c -17.102,-4.722 -43.528,-0.851 -59.626,13.522 -11.89,10.616 -20.771,25.766 -34.979,30.057 l 3.549,3.713 c 13.435,-4.496 23.927,-20.447 35.117,-29.827 15.306,-12.828 38.421,-17.001 55.569,-13.129 z"
     fill="#eee000"
     id="path31" />
  <path
     d="m 440.3033,493.92018 c -24.743,80.377 -18.914,163.747 55.143,162.19 57.797,-1.215 81.22,-31.449 82.146,-76.844 l -63.75,-21.957 c -4.774,-23.021 -4.822,-46.544 0.364,-69.066 z"
     fill="#bbb999"
     id="path32" />
  <path
     clip-path="url(#i)"
     d="m -776.542,903.1 c -5.643,33.217 -37.167,71.086 -98.05,87.258 l 101.696,3 z"
     fill="#bbb000"
     id="path33"
     transform="translate(1359.1403,-329.43182)" />
  <path
     clip-path="url(#j)"
     d="m -914.703,858.074 c -4.864,30.714 1.032,63.974 9.372,74.925 2.101,2.756 -27.438,-5.744 -40.32,-5.98 -11.127,-33.6 -8.962,-66.87 30.948,-68.945 z"
     fill="#bbbfff"
     id="path34"
     transform="translate(1359.1403,-329.43182)" />
  <path
     d="m 508.3093,651.24518 c -56.065,9.244 -92.129,-29.455 -71.611,-131.746 -2.302,0.231 -6.575,1.488 -6.856,2.906 -21.349,107.509 22.747,143.966 79.357,134.755 51.333,-8.352 67.539,-38.531 70.422,-76.461 0.061,-0.793 -1.988,-2.564 -3.229,-3.523 -4.406,39.158 -19.44,66.051 -68.083,74.069 z"
     fill="#eee000"
     id="path35" />
  <path
     d="m 515.2453,556.42618 c 0.166,0.557 -2.292,3.541 -3.357,4.785 -7.716,-22.053 -5.943,-46.923 1.047,-73.432 l 5.561,-0.354 c -7.129,26.421 -8.54,51.228 -3.251,69.001 z"
     fill="#eee000"
     id="path36" />
  <path
     d="m 574.45559,419.24304 c -2.535,11.211 -5.173,24.092 -0.37,37.243 7.616,20.855 4.615,52.401 -1.138,75.15 -18.2,-13.25 -44.22,-13.398 -60.325,-11.877 14.773,-21.195 27.13,-59.938 19.083,-75.343 l 29.395,-68.93 c 5.924,9.93 16.815,28.453 13.355,43.757 z"
     fill="#aaa999"
     id="path37" />
  <path
     d="m 528.00159,476.08804 c -0.135,4.174 -1.144,11.267 -2.403,15.228 -2.078,6.537 -9.991,22.33 -14.686,27.968 -0.695,0.835 -0.922,2.108 -0.086,2.062 27.469,-1.53 47.564,-0.501 63.829,14.323 10.479,-40.564 5.379,-71.023 0.95,-86.629 -1.569,-5.53 0.987,-27.692 2.957,-37.019 l -6.859,3.636 c -2,6.763 -5.218,30.918 -3.104,36.437 5.774,15.077 7.513,41.963 0.639,73.396 -13.693,-9.218 -35.749,-9.513 -50.939,-8.575 6.577,-8.23 16.395,-29.179 16.456,-42.556 z"
     fill="#eee000"
     id="path38" />
  <path
     d="m 500.6613,518.75118 c 6.292,-3.994 18.379,-12.174 23.213,-18.084 36.6,-44.746 63.271,-89.857 47.791,-152.92 -18.036,-73.473 -178.55,-82.842 -212.756,-17.585 -27.851,53.132 -19.224,148.145 30.39,189.449 16.574,13.798 43.258,20.546 69.354,18.396 16.837,-1.387 27.246,-9.886 42.008,-19.256 z"
     fill="#bbb999"
     id="path39" />
  <path
     clip-path="url(#k)"
     d="m -876.146,639.966 c 29.817,78.103 41.148,231.818 -94.287,222.542 l -138.913,-43.325 106.773,-267.287 z"
     fill="#bbbfff"
     id="path40"
     transform="translate(1359.1403,-329.43182)" />
  <path
     d="m 368.0433,326.05218 c -34.611,56.042 -23.422,130.417 5.615,170.92 17.114,23.872 36.004,34.819 61.527,39.786 7.32,1.424 13.702,1.482 21.365,0.656 -7.511,4.133 -12.342,4.953 -21.072,4.336 -29.007,-2.053 -50.715,-13.544 -70.724,-40.342 -30.002,-40.181 -40.766,-115.936 -4.199,-174.54"
     fill="#eee000"
     id="path41" />
  <path
     d="m 443.7453,226.31318 c -0.385,-0.005 -0.752,0.003 -1.125,0.031 -9.696,5.201 -14.408,10.943 -19.625,20.906 -6.293,10.78 -20.402,16.359 -31.812,16.938 -15.171,1.964 -27.297,9.706 -32.718,23.844 -6.69,12.381 -18.734,19.672 -32.5,13.281 -7.073,-3.284 -8.607,-14.282 -8.719,-20.969 -24.43,20.047 -24.426,39.915 -12.562,60.5 6.988,12.125 24.688,20.162 38.531,13.469 18.877,-9.126 16.996,-26.401 36.281,-35.25 8.923,-3.822 21.273,0.5 29.594,2.562 14.81,2.941 24.681,-19.59 39.25,-18.719 15.051,1.023 25.142,14.131 35.531,23.469 9.239,2.995 19.324,-3.189 27.77,-5.951 12.871,-4.21 37.545,-7.347 41.563,17.224 l 34.766,-9.125 c -3.78,-20.653 -16.916,-35.957 -28.661,-44.21 -11.672,-8.201 -28.967,-23.153 -37,-34.438 -7.283,-10.23 -21.76,-7.772 -33.094,-8.125 -15.95,0.412 -33.542,-15.291 -45.47,-15.437 z"
     fill="#aaa999"
     id="path42" />
  <path
     clip-path="url(#l)"
     d="m -912.319,545.219 -192.078,48.398 31.113,103.945 187.291,-35.659 c 20.96,-29.026 3.018,-88.411 -26.326,-116.684 z"
     fill="#eeefff"
     id="path43"
     transform="translate(1359.1403,-329.43182)" />
  <path
     d="m 447.8703,221.18818 c -10.833,0.445 -20.475,8.997 -28.25,23.594 -7.161,13.444 -15.385,15.196 -29.75,16.531 -22.525,2.092 -30.029,15.307 -38.562,29.062 -10.332,16.656 -42.375,11 -27.031,-17.5 -22.629,8.355 -34.241,26.998 -32.25,45.531 1.47,13.674 11.765,27.887 19.312,33.812 4.009,3.146 10.746,6.753 15.531,8 5.39,1.403 18.971,-0.872 25.875,-6.562 10.617,-8.75 21.378,-32.815 31.25,-33.906 7.44,-0.822 14.416,3.3 22.281,5.438 7.229,1.964 14.848,-1.521 19.525,-4.347 19.416,-11.728 29.833,-12.84 51.671,4.32 7.486,5.882 12.778,5.012 20.522,2.658 12.454,-3.785 25.788,-7.875 33.5,-8.47 12.392,-0.955 18.796,12.427 15.382,26.398 l 7.994,-6.036 c 0.265,-0.932 0.481,-1.831 0.562,-2.719 1.395,-15.309 -6.438,-30.735 -29.568,-25.1 -10.485,2.554 -28.681,11.298 -34.251,11.74 -1.522,0.121 -13.854,-8.751 -21.406,-16.319 -4.894,-4.904 -15.874,-11.979 -23.049,-9.623 -7.921,2.603 -29.561,20.474 -36.414,21.122 -5.08,0.479 -18.324,-9.304 -28.094,-6.719 -14.513,3.84 -24.485,26.776 -34.311,35.656 -8.547,7.723 -22.408,7.859 -31.563,-0.094 -19.694,-17.11 -24.281,-45.645 -4.094,-61 -3.019,20.079 28.958,28.81 42.75,9 8.401,-12.067 22.513,-29.913 36,-27.312 20.038,3.863 22.189,4.484 32.719,-15.812 9.478,-18.269 19.671,-29.118 34.938,-20.438 13.166,7.486 22.87,15.435 41.022,15.625 12.384,0.129 23.404,6.464 31.705,17.567 8.134,10.878 11.936,15.478 22.241,20.879 3.894,2.041 10.991,7.201 13.994,10.69 9.202,10.691 10.907,16.621 11.877,36.107 l 10.525,-0.704 c -2.648,-22.058 -5.702,-30.99 -15.338,-40.98 -6.499,-6.738 -14.121,-12.208 -17.652,-13.59 -10.239,-4.008 -15.57,-7.807 -20.75,-16.469 -9.037,-15.113 -16.512,-22.65 -35.375,-22.656 -15.465,-0.005 -20.355,-0.15 -35.562,-11.125 -6.231,-4.496 -12.231,-6.482 -17.906,-6.249 z"
     fill="#eee000"
     id="path44" />
  <path
     d="m 499.0863,519.42018 c 1.996,0.046 4.146,-0.394 6.107,-0.907 16.463,-4.312 51.207,-49.639 63.66,-85.748 l -6.671,-3.897 c -12.138,30.77 -37.688,73.338 -59.311,86.363 -1.816,1.094 -3.143,2.63 -3.785,4.189 z"
     fill="#bbb999"
     id="path45" />
  <path
     d="m 559.39457,435.63991 c 37.39921,-6.24512 52.30443,-47.40768 43.31969,-92.60027 -7.9165,-39.82116 -47.57757,-26.86717 -65.74149,17.74824"
     fill="#bbb999"
     stroke-width="1.06641"
     id="path46" />
  <path
     d="m 571.10391,396.31437 c 14.31806,-16.56045 15.72835,-22.70454 7.14755,-42.37377 0.20533,10.50602 1.75142,20.95987 -6.38598,37.8527 -0.63086,1.31106 -0.82164,2.74713 -0.76157,4.52107 z"
     fill="#eee000"
     stroke-width="1.06641"
     id="path47" />
  <path
     d="m 546.83755,350.11205 c 0.58502,-2.42175 1.42877,-4.19532 2.31785,-5.80054 17.60595,-31.79569 46.61257,-27.47008 51.39849,7.16215 5.66334,40.98248 -9.92829,74.21452 -41.16977,84.16241 0.82312,2.28072 2.47605,5.05945 3.68087,6.38471 33.81431,-9.6518 52.25306,-45.01231 46.47992,-92.40635 -5.1479,-42.25781 -48.0208,-53.29248 -67.46821,-5.71331 1.96552,2.52206 3.01176,3.85479 4.76085,6.21093 z"
     fill="#eee000"
     stroke-width="1.06641"
     id="path48" />
  <path
     d="m 388.0833,382.21018 c -4.385,-0.301 -8.57,2.353 -11.817,6.852 -3.246,4.499 -5.563,10.872 -6.176,18.018 -0.612,7.146 0.594,13.725 3.035,18.614 2.441,4.89 6.126,8.084 10.511,8.385 4.385,0.301 8.57,-2.354 11.817,-6.852 3.246,-4.499 5.561,-10.836 6.173,-17.982 0.613,-7.146 -0.59,-13.761 -3.031,-18.65 -2.443,-4.889 -6.127,-8.083 -10.512,-8.385 z"
     fill="#eee000"
     id="path49" />
  <path
     d="m 452.7273,412.91918 c 21.849,-17.717 48.121,-3.106 43.977,17.502 -10.753,-7.862 -21.586,-12.738 -34.519,-13.741 -4.097,-0.318 -6.999,-1.537 -9.458,-3.761 z"
     fill="#eee000"
     id="path50" />
  <path
     d="m 389.42599,480.48586 -2.03174,7.34831 c 33.29118,24.09952 45.0497,19.50578 81.75123,4.2477 l -5.59996,-9.67121 c -37.60032,7.11793 -46.91472,7.25406 -74.11953,-1.9248 z"
     fill="#aaa999"
     id="path51" />
  <path
     d="m 458.06889,479.98965 c -30.00422,8.82328 -46.39537,8.55299 -65.83467,-1.16031 -1.42275,-0.71139 -3.19643,-3.16056 -3.87934,-5.33234 -1.63251,2.10809 -3.57891,7.2704 -3.74036,9.14848 -0.30149,3.53719 2.69228,12.39311 6.12178,16.41261 -0.0993,-2.51559 -0.23415,-7.08735 1.39021,-5.53587 23.75235,22.6677 44.54299,15.5275 72.20943,2.26045 1.00333,-0.48029 3.24873,0.6564 3.31209,1.49327 0.14426,1.90618 -0.23873,4.10897 -0.57264,6.31309 -0.10787,0.70724 1.81523,1.84448 2.12553,1.17526 2.79469,-6.02277 3.50529,-13.71105 2.68917,-17.74386 -0.77363,-3.82123 -6.94551,-11.9218 -11.72826,-14.01627 0.0947,2.59048 -0.36639,6.47795 -2.09294,6.98549 z m 7.97178,9.37045 c -0.66394,1.22717 -2.49443,2.78263 -4.38298,3.52076 -26.60239,10.40281 -51.5612,15.25406 -71.01904,-4.7832 -1.86193,-1.91788 -0.42375,-5.72979 1.44528,-5.00192 24.60371,9.57474 40.63977,8.51649 67.01902,1.22011 1.31222,-0.36356 7.63864,3.75109 6.93772,5.04425 z"
     id="path52"
     style="fill:#eee000" />
  <path
     d="m 414.4313,511.71418 c 6.146,0.475 12.472,0.931 19.021,1.081 8.79,8.155 -12.937,12.036 -19.021,-1.081 z"
     id="path53"
     style="fill:#eee000" />
  <path
     d="m 367.9713,366.29418 c 8.523,-5.38 16.506,-9.645 26.928,-10.199 -1.721,-2.172 -3.668,-4.455 -5.642,-6.88 -7.224,4.418 -15.562,5.963 -21.286,17.079 z"
     id="path54"
     style="fill:#eee000" />
  <path
     d="m 513.1303,385.93618 c -2.259,-9.443 -8.713,-17.254 -16.479,-21.36 -3.296,-1.743 -6.443,-3.659 -9.812,-5.723 -2.487,3.053 -4.887,6.104 -8.576,9.177 9.646,1.398 19.109,5.462 24.728,11.238 2.456,2.526 6.629,5.069 10.139,6.668 z"
     id="path55"
     style="fill:#eee000" />
  <path
     d="m 428.1693,422.15618 c -8.575,10.543 -25.505,20.311 -42.672,21.464 -3.11,0.209 -4.656,3.179 -4.657,6.392 0,4.99 1.035,12.396 2.741,18.72 -2.271,0.099 -4.574,-1.585 -5.738,-3.755 -2.385,-4.442 -4.264,-13.547 -4.785,-19.407 -0.408,-4.588 3.057,-8.873 7.689,-8.568 14.702,0.969 27.25,-7 36.769,-12.326 2.666,-1.492 7.249,-3.176 10.653,-2.52 z"
     id="path56"
     style="fill:#eee000" />
  <path
     d="m 332.3933,652.87118 c 4.994,-13.6 7.056,-26.908 5.003,-42.17 1.826,0.934 3.935,2.576 4.13,3.99 1.992,14.369 1.275,23.328 -4.479,35.631 -0.593,1.268 -2.495,2.239 -4.654,2.549 z"
     id="path57"
     style="fill:#eee000" />
  <path
     d="m 503.1683,636.19018 c 0.659,48.689 -4.25,89.502 -15.558,137.922 -2.52,10.787 12.429,12.107 34.922,12.15 22.705,0.043 41.596,-1.238 42.104,-13.773 2.053,-50.568 -6.005,-103.922 -15.7,-150.299"
     fill="#bbb999"
     id="path58" />
  <path
     clip-path="url(#m)"
     d="m -796.805,1024.598 c -3.233,44.02 -18.718,81.6 -47.376,110.309 l 67.175,-9.9 z"
     fill="#bbb000"
     id="path59"
     transform="translate(1359.1403,-329.43182)" />
  <path
     d="m 501.7543,638.66418 c 0.659,48.689 -5.354,86.527 -18.411,134.947 -2.885,10.695 16.342,15.789 38.836,15.832 22.705,0.043 45.485,-2.652 45.994,-15.188 2.052,-50.568 -6.038,-100.525 -16.971,-151.145 -1.718,1.381 -3.361,3.502 -3.305,3.844 8.896,53.807 16.144,98.275 12.773,146.732 -0.262,3.762 -16.119,8.336 -37.506,7.59 -20.569,-0.717 -33.1,-3.926 -31.791,-8.738 12.317,-45.305 16.938,-85.844 15.63,-131.113 -0.014,-0.491 -3.455,-2.222 -5.249,-2.761 z"
     fill="#eee000"
     stroke="#000000"
     stroke-width="0.2"
     id="path60" />
</svg>
